<?xml version="1.0" encoding="UTF-8" standalone="no"?>
<svg
   width="16"
   height="16"
   fill="#ffffff"
   class="bi bi-controller"
   viewBox="0 0 16 16"
   version="1.1"
   id="svg2"
   xmlns="http://www.w3.org/2000/svg"
   xmlns:svg="http://www.w3.org/2000/svg">
  <defs
     id="defs2" />
  <path
     id="path2"
     style="display:inline"
     d="M 5.4414062 2.1132812 C 5.4066372 2.1149785 5.3729809 2.119555 5.3378906 2.1289062 L 3.4042969 2.6464844 C 3.1370696 2.7177476 2.9789383 2.9926936 3.0507812 3.2597656 L 3.078125 3.3378906 C 2.9209692 3.4319202 2.7769658 3.5453208 2.6464844 3.6738281 C 2.2394844 4.0818281 1.8677344 4.7233125 1.5527344 5.4453125 C 1.2337344 6.1783125 0.95209375 7.0351562 0.74609375 7.9101562 C 0.54109375 8.7861563 0.4068125 9.6915781 0.3828125 10.517578 C 0.3598125 11.332578 0.4409375 12.118562 0.7109375 12.726562 C 0.96256805 13.28648 1.5458131 13.621392 2.15625 13.556641 C 2.79225 13.489641 3.2719219 13.163203 3.6699219 12.783203 C 3.9149219 12.550203 4.1652031 12.258562 4.4082031 11.976562 C 4.5342031 11.828562 4.6563906 11.683734 4.7753906 11.552734 C 5.5033906 10.748734 6.373 10.025391 8 10.025391 C 9.627 10.025391 10.496609 10.748734 11.224609 11.552734 C 11.342609 11.683734 11.465797 11.828562 11.591797 11.976562 C 11.834797 12.258562 12.085078 12.551203 12.330078 12.783203 C 12.728078 13.162203 13.20775 13.489641 13.84375 13.556641 C 14.454187 13.621392 15.037432 13.28648 15.289062 12.726562 C 15.558062 12.118562 15.641187 11.333578 15.617188 10.517578 C 15.593188 9.6915781 15.459906 8.7851562 15.253906 7.9101562 C 15.047906 7.0351563 14.767266 6.1783125 14.447266 5.4453125 C 14.132266 4.7233125 13.761516 4.0818281 13.353516 3.6738281 C 13.245516 3.5664948 13.121136 3.4676201 12.980469 3.3769531 C 13.141312 3.0923498 12.989618 2.7310194 12.673828 2.6464844 L 10.742188 2.1289062 C 10.457828 2.0528989 10.168611 2.2371891 10.119141 2.5273438 C 9.4421406 2.4423438 8.72 2.4023438 8 2.4023438 C 7.307 2.4023438 6.6120313 2.4405312 5.9570312 2.5195312 C 5.9096786 2.2697759 5.6847897 2.1014004 5.4414062 2.1132812 z M 4.5 5.5273438 L 5.5 5.5273438 L 5.5 6.5273438 L 6.5 6.5273438 L 6.5 7.5273438 L 5.5 7.5273438 L 5.5 8.5273438 L 4.5 8.5273438 L 4.5 7.5273438 L 3.5 7.5273438 L 3.5 6.5273438 L 4.5 6.5273438 L 4.5 5.5273438 z M 10.914062 5.5351562 A 0.5 0.5 0 0 1 11.5 6.0273438 A 0.5 0.5 0 0 1 10.5 6.0273438 A 0.5 0.5 0 0 1 10.914062 5.5351562 z M 10 6.5273438 A 0.5 0.5 0 0 1 10 7.5273438 A 0.5 0.5 0 0 1 10 6.5273438 z M 11.914062 6.5351562 A 0.5 0.5 0 0 1 12.5 7.0273438 A 0.5 0.5 0 0 1 11.5 7.0273438 A 0.5 0.5 0 0 1 11.914062 6.5351562 z M 11 7.5273438 A 0.5 0.5 0 0 1 11 8.5273438 A 0.5 0.5 0 0 1 11 7.5273438 z " />
</svg>
