<?xml version="1.0" encoding="UTF-8" standalone="no"?>
<!-- Created with Inkscape (http://www.inkscape.org/) -->

<svg
   version="1.1"
   id="logo"
   width="228.00002"
   height="279.99997"
   viewBox="0 0 228.00002 279.99997"
   xmlns="http://www.w3.org/2000/svg"
   xmlns:svg="http://www.w3.org/2000/svg">
  <defs
     id="defs1" />
  <g
     id="g1"
     transform="translate(-80.805809,-220.86922)">
    <g
       id="g31"
       transform="matrix(0.99897107,0,0,0.99804163,-329.64213,-165.43829)"
       style="fill:#ffffff">
      <path
         id="path5-3"
         style="fill:#ffffff"
         d="m 420.91268,621.66513 c 0.29969,-0.0112 0.59894,-0.0233 0.89843,-0.0391 -0.0686,-0.48747 -0.14083,-0.97447 -0.20117,-1.46289 -0.14876,-1.34504 -0.25704,-2.69392 -0.24804,-4.04882 -0.0167,-0.85838 -0.0518,-1.71611 -0.0742,-2.57422 -0.0883,-0.0649 -0.17782,-0.12781 -0.26563,-0.19336 -0.0226,-0.0157 -0.0439,-0.033 -0.0664,-0.0488 z m 34.87109,-1.19336 c 11.72457,-8.36543 26.89221,-14.81652 46.25391,-15.92774 0,0 39.97266,-0.27228 47.96289,-3.53711 7.99004,-3.26463 68.75378,-14.72174 83.02539,-98.62109 14.27142,-83.89935 -1.0586,-115.32031 -1.0586,-115.32031 0,0 -21.1616,55.7865 -81.10546,59.93164 0,0 -14.51394,1.03136 -38.86329,1.41992 -24.34915,0.38856 -75.84479,20.6908 -90.64062,85.79297 l -0.22266,43.52734 c 2.50642,4.22719 5.49846,8.13135 8.91992,11.6836 3.99177,4.11383 8.12226,8.13862 12.80079,11.47656 2.26504,1.65299 4.65742,3.20885 6.51562,5.33594 1.94411,2.34513 3.33678,5.01458 4.20703,7.94336 0.7059,2.10854 1.45116,4.20328 2.20508,6.29492 z" />
      <path
         id="path5-3-1"
         style="fill:#ffffff"
         d="m 629.06355,433.01533 c -0.29969,0.0112 -0.59894,0.0233 -0.89843,0.0391 0.0686,0.48747 0.14083,0.97447 0.20117,1.46289 0.14876,1.34504 0.25704,2.69392 0.24804,4.04882 0.0167,0.85838 0.0518,1.71611 0.0742,2.57422 0.0883,0.0649 0.17782,0.12781 0.26563,0.19336 0.0226,0.0157 0.0439,0.033 0.0664,0.0488 z m -34.87109,1.19336 c -11.72457,8.36543 -26.89221,14.81652 -46.25391,15.92774 0,0 -39.97266,0.27228 -47.96289,3.53711 -7.99004,3.26463 -68.75378,14.72174 -83.02539,98.62109 -14.27142,83.89935 1.0586,115.32031 1.0586,115.32031 0,0 21.1616,-55.7865 81.10546,-59.93164 0,0 14.51394,-1.03136 38.86329,-1.41992 24.34915,-0.38856 75.84479,-20.6908 90.64062,-85.79297 l 0.22266,-43.52734 c -2.50642,-4.22719 -5.49846,-8.13135 -8.91992,-11.6836 -3.99177,-4.11383 -8.12226,-8.13862 -12.80079,-11.47656 -2.26504,-1.65299 -4.65742,-3.20885 -6.51562,-5.33594 -1.94411,-2.34513 -3.33678,-5.01458 -4.20703,-7.94336 -0.7059,-2.10854 -1.45116,-4.20328 -2.20508,-6.29492 z" />
    </g>
  </g>
</svg>
